/* XPM */
static char *f9df3f395e2d4b219ecb05c192aafabd1C95dWiPEvpQxodd[] = {
/* columns rows colors chars-per-pixel */
"64 64 84 1 ",
"  c #020202",
". c #0C0C0C",
"X c #141414",
"o c #1A1A1A",
"O c #242424",
"+ c #2A2A2A",
"@ c #323232",
"# c #3B3B3B",
"$ c #43663A",
"% c #476C3D",
"& c #496E3F",
"* c #444444",
"= c #4B4B4B",
"- c #535353",
"; c #5C5C5C",
": c #4A6F40",
"> c #4D7542",
", c #4F7844",
"< c #517C46",
"1 c #537F48",
"2 c #646464",
"3 c #6D6D6D",
"4 c #737373",
"5 c #7D7D7D",
"6 c #55834A",
"7 c #58874C",
"8 c #5A8A4E",
"9 c #5F8456",
"0 c #5D8D50",
"q c #5F9152",
"w c #608956",
"e c #62835A",
"r c #658D5A",
"t c #619454",
"y c #649957",
"u c #6A965E",
"i c #679C59",
"p c #689E5A",
"a c #6CA45D",
"s c #6EA95F",
"d c #6E8D65",
"f c #728E6B",
"g c #6E9166",
"h c #709965",
"j c #74936C",
"k c #779C6D",
"l c #799F6F",
"z c #7A9373",
"x c #7C9A74",
"c c #7E9678",
"v c #6FAA60",
"b c #71AD62",
"n c #74B164",
"m c #78B269",
"M c #7EA474",
"N c #7CA871",
"B c #83A57B",
"V c #87B07C",
"C c #8AB47F",
"Z c #858585",
"A c #8B8B8B",
"S c #8D9E88",
"D c #939393",
"F c #9C9C9C",
"G c #8CA286",
"H c #8EA289",
"J c #92A58D",
"K c #91A98A",
"L c #91B189",
"P c #95A491",
"I c #98A794",
"U c #97AC91",
"Y c #9AAB95",
"T c #9DA99A",
"R c #9BB494",
"E c #9ABA91",
"W c #9FB999",
"Q c #A1AD9D",
"! c #A0B39A",
"~ c #A4A4A4",
"^ c #A4ACA2",
"/ c #ADAEAD",
"( c #A6B0A3",
") c #ADB1AC",
/* pixels */
"887qbnnbq77666>6,<<<6666>:>,16168qqq88776<6,<<6,,,66qiqq:$$%6666",
"878qbnnbq8866,,><<,<6666,>>><616qqqq88876,,6<,,,6,,6qiiq:$$%,666",
"787qbnnsq7766>,6<<<<666<,>>>61168qqq87876666,,,,,666qpq8:$$%,66,",
"887qvssaq88766,611116<66,,,,<<1188880000666666666767qqq7>$%:,666",
"88788878qqq068888887<,,<7887<<9,6,&6qyyyqqqq877qpbva0766,,,,6<6<",
"87876666qqqq88880887<>>,7088<zF^&,&,yiyyqaaq077qsnns7666<<<<<66<",
"88776666qqqq08088887<>><7009<~;5&&&6yyyyiqiq877qsnns0666<<<<66<6",
"88886666800088888886<,,<7078<ZO*T6,6qyyyqaqqq80tpbvp76,,<<,<6766",
"qtqq66,66&66,6,6<6<6,,,<6777G2.OA966tqttttyyyyyt8776>>>>>>>1yiii",
"tttq66666&,&&6,,,<,<<<<<6766~= X;!670t0tyyyyiaiq6<<>:%%&>>>1isss",
"ttqq6666&&&,,,,,<<<<6<<<66664O  OD67t0qtqiyyiiat7<1>>%%&>>>1isss",
"q87666666&6&,6666<<<<66666<j-.  .4068880qqqqyyyq6111>::><116tyyy",
">,>,,6,&6,,,677766677887,,,D+    *F<11118867qqq076611<<10qqq1111",
"%%%%6&,66,66788877778807,::4o    +4>,,>,6666778766661116tyyq<:>:",
"%%%&&6,,,666788777778987,:9-.    X=z>>,<6666870776666116ttyt<:>:",
",,,,6,,66677777788800qq8,>~+      OD,>>,,,668q0088871116qqq0<,>,",
"78886,,6qttq76<6qyttitiq<<3X      X2>:::>,>6qqqiyty81,,,66161111",
"tqtq6>,6yipt6>>6qipppiiy6S@.  .   .*J%$:>>>1qqiqiiit1>:>11111611",
"tttq6>,6yipq6>,6qpppiiiy1F. .+=O   o5$::>>>6qvqiiiit1:>>,,1,1611",
"qqqq6666qtt06666qtqtyyytr5  X;A*.  X#z::>,>18qqqttt81>>,11116666",
"000067776,,60qq076678qq8/-  @Dl5X   .F761,<16161<,<<<<,<16667777",
"80888887>%%,0iqq6,,<7888A+  ;(w~+    4x81<<,,,>>:%%:,<<<66667887",
"0800q887&%%,0yiq1>,<68803o X5l0K=X   -)76<<<,>,>:%%:,<<166667878",
"797780q76,,60qq86<,1677D#..@/877A@.  OZ66766666<,:>,116666668776",
",,,<800qqqqq777776661<<2O..-f,<,T-X  X-Tyiaiiyyq7667qttq88887767",
":>>,000qqqiq777777761>f*X o5,>>><4o  .@Ziaaapiiyq668tyyt08887771",
">>>,80qwqiqq77667776<>/+  +/>>>>,F#   .=Nvvaaiiy8678tqyt08886117",
">,>,8000qqhq76666776<>Ao X=f,>>><P2.   @)paiiyiq8678tyyt88777777",
"61611116qqq066666776>S;. OAq1,,<77FO   oZ66666,66668qttq1>><qtyt",
"66661,<1qqq866<66661>F*. #Ut1,,,88Y*.  .2G<,&>>66666qqq8<>><tiiy",
"66661<<18qq866666671c3+ .-tt1<,<8883X   *P,>>>>,6668qqq8,>><tyyy",
"77761,11qqq066667776/=X O4yt1<<1880FO   O2G6,,,,6667qqq81>,<qyty",
"yqyy080qiaaaiyyyyyiqDo. *Tbbt000aaaL*.  .@T<17761<<<6888qyqq6,,,",
"yyyqq0qqasaaiiiyiait3.  ;!nbt00qaaaa5o   X5<17761,<16778qyaq,&,&",
"yyyyq80qaaaaayayiiiK-. X4Lmbt0qqaaaa/@   .;d77761<,<6878yyyq<,&,",
"tyyq0880aaaayyyqyyyF+  o3~/////)/)))~@    @~79771<<17080qyyq<&,&",
"8q88,,66iasa86766694.  .oOO++O+++++++X    X4yyyt7610ypaiqqqq<<&<",
"88876,&6isai866666~*  .XoooooXoXoooooX.    *Fyyt7617uvaitqq8<&<&",
"8787&,&6iaaa86666,5+ .+244344434433332#.   +4yyt7660uaaatqq87&&&",
"00076,66yaay876666;o X;Bsssa6,,,6666<xA@   X=yyw7660yiaytqqq6&66",
"00088880qqqtqtq86G@..@Ai00006667aaai,>f5o  .+/1166666678tytt7111",
"00q8qqqq888qttyq6Fo X=/i76667778bnns,&&~+   o51<666666<6qyyy7617",
"880qqqq0888qtytqj2X +5La86667777bnba>&&z*.   =Q<6666,<66tyyy8676",
"8888qttq8778qytq^#  =)yq76667677asaa<>><3o   OA<78876,&68qq87661",
"68&6yyyy76<60tt0AO .2t7696761116tttt6166A@.  o3Gtppq6&<<1616&161",
"&&17ypay7,,60ttQ;X XZ<<<667711<187887776I2o  .@Fyaay6&&,&&&&6611",
"6&&7yppt6,,6qttQ*. @~,,<60071111788877776D#   o4yaay6&&&&&&1&111",
"8q88tyyt6,,6800ZO .-G1<11611<<,<777777766J-   X=Eppy8677&&&&7166",
"aapyt0q8<,,,67B=. +A61661<1<,>:>666667866<5X  .oBrttqq08&&&&0787",
"vvsa0087<,>,<<^@. =~97661<<>:%::<,,66766<<F+   .3B0ttyy0&&&&0070",
"ssva0787<>,,<<Bo .3J7766<<<,>::><66676866<T*.   -/qtytt0&&&&7807",
"ppppt007,,&,<F;..o~77777<,,<111166667766767ZO   +5q0qqq08&718q00",
"7677tytt&&&11F*..+P18886<,,<uaap0qq87778qtt~=   o;Qt86670000yppy",
"&&&1tyyq&&&&B3+ o->,7808,>,<annntqqq8778tyuM5.  .@506<16tyiipppp",
"&&&1tyyt1&&&F*. O4:,7888<>>1vnnvtttq8778tyiy~o   X=r1<16tiyipppp",
"8677tyyt71&S=o. O3668wqq<<<<avvvq8008778ttyqI@.  .OF71660ttttytt",
"qqqqqttyaVB=X. .X#(iiiiq77678qq8<,<<77780807B@X . .@4Cq87171<,,,",
"tttttttyv!A3;;;;23(spiiy87777776,&&,78887077d4;---=-4/h87111>&&&",
"ttttqtttvVC!!!FILEsapiii87777777,&&,78877707&QQ//////Iu81111>&&&",
"qqqtqqrtavbp1&&&taspiyiq87777777,,<<88qq777787180rtt00081111,&>>",
"66<6880880771&17qyyyqqq887777777<667sssp7&&10ttq777177771<<17888",
"&6<<78871&11<1178yyqq888877777776668snbs1&&7qyiq1&&<17711<<100qq",
"&<<<78881111<1<1qyyqq788777777776668snbs1&&<qiyq1,1117771<<1000q",
"66&678887&&1<117qqyqq888877777776668bbbs7&&<qyyq7<,117111<<10qqq"
};
