/* XPM */
static char *_537e63c031347daa0367d50fdc01452b2jMpoCozzmpahC7[] = {
/* columns rows colors chars-per-pixel */
"64 64 203 2 ",
"   c #16151A",
".  c #18171C",
"X  c #1A191E",
"o  c #1E1D22",
"O  c #1F1F29",
"+  c #201F25",
"@  c #222126",
"#  c #25232A",
"$  c #29262C",
"%  c #2C292E",
"&  c #332A2C",
"*  c #2A2730",
"=  c #2C2B32",
"-  c #322D33",
";  c #312F38",
":  c #382D31",
">  c #353136",
",  c #3B3335",
"<  c #35323A",
"1  c #3A353B",
"2  c #3D393E",
"3  c #473838",
"4  c #593F3C",
"5  c #5A433E",
"6  c #69473F",
"7  c #353541",
"8  c #3A3541",
"9  c #3E3A42",
"0  c #3C3C49",
"q  c #36394A",
"w  c #423D44",
"e  c #423F4A",
"r  c #3F404C",
"t  c #3E415A",
"y  c #464146",
"u  c #474248",
"i  c #4A454B",
"p  c #4E494E",
"a  c #504B4F",
"s  c #594442",
"d  c #434453",
"f  c #4B4753",
"g  c #4F4A50",
"h  c #4A4A59",
"j  c #44475C",
"k  c #524D53",
"l  c #504F5C",
"z  c #565156",
"x  c #595357",
"c  c #575258",
"v  c #5A555A",
"b  c #5E595D",
"n  c #604643",
"m  c #6C4B46",
"M  c #624A49",
"N  c #684B48",
"B  c #7B554E",
"V  c #71524E",
"C  c #615759",
"Z  c #615B5E",
"A  c #6B5C5C",
"S  c #655657",
"D  c #7C5752",
"F  c #785D54",
"G  c #6E605C",
"H  c #7E6A5F",
"J  c #7B6459",
"K  c #4D4E62",
"L  c #4F5164",
"P  c #535365",
"I  c #5F5A60",
"U  c #53546B",
"Y  c #5A5B6C",
"T  c #5D5D72",
"R  c #625D62",
"E  c #615E6C",
"W  c #605F74",
"Q  c #5E627A",
"!  c #666165",
"~  c #696466",
"^  c #6A6669",
"/  c #6E696C",
"(  c #676268",
")  c #716465",
"_  c #7C6A62",
"`  c #716B6E",
"'  c #796D6E",
"]  c #7F716D",
"[  c #61647A",
"{  c #68687A",
"}  c #736E71",
"|  c #767174",
" . c #7A7475",
".. c #7B7579",
"X. c #7E797B",
"o. c #80584E",
"O. c #825A52",
"+. c #855B54",
"@. c #8B6056",
"#. c #8D625B",
"$. c #8E685F",
"%. c #95695F",
"&. c #8C6E6B",
"*. c #876D64",
"=. c #976C64",
"-. c #867268",
";. c #8B756B",
":. c #967568",
">. c #827675",
",. c #847976",
"<. c #8D7B72",
"1. c #847179",
"2. c #827C7D",
"3. c #917E74",
"4. c #9B7D74",
"5. c #937776",
"6. c #A47A6C",
"7. c #A5776C",
"8. c #A97D73",
"9. c #95847C",
"0. c #9B847B",
"q. c #9B8174",
"w. c #A48275",
"e. c #AC8476",
"r. c #A5837A",
"t. c #AD8778",
"y. c #A6897C",
"u. c #AB8A7D",
"i. c #B38475",
"p. c #B4867A",
"a. c #B38B7C",
"s. c #BC8B7D",
"d. c #B68876",
"f. c #C28D7D",
"g. c #6C6D83",
"h. c #6D6E88",
"j. c #676883",
"k. c #706E87",
"l. c #6F7187",
"z. c #6E7189",
"x. c #737185",
"c. c #72748D",
"v. c #7A778A",
"b. c #7B7B94",
"n. c #777999",
"m. c #6B7292",
"M. c #7D7EA0",
"N. c #837E81",
"B. c #80778D",
"V. c #947F82",
"C. c #877F93",
"Z. c #7D819E",
"A. c #868183",
"S. c #868284",
"D. c #898486",
"F. c #8B8688",
"G. c #8D898A",
"H. c #938380",
"J. c #9C8881",
"K. c #9F918A",
"L. c #82819B",
"P. c #968C91",
"I. c #918594",
"U. c #979392",
"Y. c #A48984",
"T. c #B58D83",
"R. c #A9968D",
"E. c #A69389",
"W. c #B49383",
"Q. c #BB9281",
"!. c #B9978E",
"~. c #AD9B91",
"^. c #A49995",
"/. c #B89A92",
"(. c #B4A39A",
"). c #B5A49A",
"_. c #8888A5",
"`. c #918EA8",
"'. c #8E91AB",
"]. c #9090AF",
"[. c #9497B2",
"{. c #A09FB6",
"}. c #A699A7",
"|. c #B5A8A1",
" X c #C49483",
".X c #C4968C",
"XX c #C69A89",
"oX c #CB9B8C",
"OX c #C99787",
"+X c #C69E91",
"@X c #CEA08F",
"#X c #CDA394",
"$X c #C9A79C",
"%X c #D1A394",
"&X c #D6AA9B",
"*X c #DBAFA2",
"=X c #CDB2A8",
"-X c #D7B7AC",
";X c #DEBFB4",
":X c #E1B9AC",
">X c #E2BFB3",
",X c #E6C4B9",
"<X c #ECCBC1",
/* pixels */
"i p p p p a k g g p p p g k g g g g g g g k z / F.F.! v v v b v b b C I R R R R R R ! Z Z Z Z Z v v z z l k k k k ~ X.| | / R z ",
"i i p i p p p p p p p p g g p p p p g g k k R X.U.U.! ! ! /  .X.2.N.N.N.N.N.N.S.F.F.G.Z.F.9.Z.X. ./ x z z z x k k ~ X. .R v x l ",
"i i i p p p p p p p p g g p p p p p p g p k | G.U.U.| / | | } } } } ^ ^ ^ ^ ^ ~ ~ ^ ^ / / / ^ !  .} x z z k k k z / 2.X.I k k k ",
"a z x v b ! R Z v b v z z g p p g p p g k k X.S.2.X.| ` } ` ^ ^ } ^ b c v v x x v l v ^ ^ R I v | } x z z k k x l / X.` v k k k ",
"v b b ~ / / / / ! ! Z b x p p p g p p p k z ..| ^ ) X.,. .>.| 9.2. .b c k k k c b R I } / ! b b / / v z l k k z l / | b k k k k ",
"G x k k k p a a z x v b b k g k g p g k k c X.9.,.9.R.).).).).).|.^.^ x k k k I / ..| | / / ! R I z z z x k a l x / ` k k k k z ",
"z g i p p v x k b Z / | / z b v k k k k k v 2.9.9.9.E.R.~.(.R.R.~.(.E.~ k k k E ....b ! ~ ^ G ` R z z z x z k k I / / z z k z z ",
"g g k k x Z v z b ! |  ./ ! / ^ v v R ! I c ] <.-._ <.9.y.~.0.9.9.Y.R.>.R b R } X. .c ! ~ / / Z.} I I ! ! I z a ^ / ! v ! v v R ",
"a v I b R ! ! G z G / } / `  . ./ ! ^ / ! x H _ J J H -.<.9.;.H $.;.E.<.^ Z !  .X.| x ^ / | X.F.X./ ! ~ / ! x a / / b k } R b / ",
"z | X.~ | | X. .k ! b v / X. . .D.( R b Z G H H J J :.:.*.*.H F G ;.y.,.~ v b /  ./ z |  .| X.2.A.| ! v b x a i } ^ z a / ~ ~ 2.",
"x |  ./ / | X.X.I I v v / |  .X.X.R c x ~ ] -.;.4.t.Q.Q.t.w.w.Y.~.$X).9.! z v ^ } ^ z |  . .2.X.| / I a a i i i | ! a a G /  .F.",
"z ~ ^ b R / | / I v a z ~ / / / ( c k R ] <.<.q.u.XX%X%X%X#X*X-X;X;X-XH.! g v / } ! v | ` ~ / ^ Z x r 5 r w y y } R r p x ` Z.G.",
"a x x k v ` / b c a p a b b b v k k k R 9.0.0.y.s.#X%X*X*X:X,X,X,X,X=X,.v g x ! ! b v ` ~ v x x a r y 2 2 w y z / v r p a } G.D.",
"y y y p v / ! i p p p p p p a a a k a C  .y.y.a.s.#X%X@X%X&X:X>X,X;X/.) g g g g f z b ! v p y y 2 2 2 2 1 2 y ^ / a 5 u i / X.2.",
"y y u p p z a p p i p p i a i a a a a a G w.a.a.s.@Xd.:.=.6.s.s.t.w.q.Z z g g g g v ^ v a y y y 2 1 2 1 1 1 r ! I a r i a R / / ",
"y y r y u p u p u p p a i i a i i a a a S 7.s.f.XX@Xd.:.:.6.Q.Q.a.w.w.G g k k k z v ! x i y 2 1 1 1 1 1 > 2 a / ^ ! R I a z v v ",
"y 5 y 5 r u i i i i i i i i i a i p p a S 7.s.OX@XOXs.a.a.s.oX#X@XXXW.) k k k k c b b g y 2 1 1 1 1 > > < r x / ^ / / Z a a a a ",
"2 r y y r y i u u i i i i i i p i p i p M &.8. Xf.OX@XoXXXOXoX&X=X$X!.) k k k k v R k p u 2 1 1 > > , > > 5 x Z b ~ ~ a i i a a ",
"r 5 r y y u u i i i u i i i i i i p i p a S 8. Xf.OXOX Xp.i.p.XXoXQ.y.G k k g z v b p p y 2 2 1 > > > > > 1 2 z a x x i r i r a ",
"2 r 2 r y y i u u u i i i i i i p p p a k S 7.f.f.s.d.d.t.t.w.a.W.W.] b k k k z z k p u r 5 1 > 1 > , > - - 1 2 1 2 y y 5 i i i ",
"9 2 r 5 y y y i i u i u u u u p i p g k C } 4.T.p.d.8.7.8.8.8.V.a.0.A x z z z z k g a p a i 2 1 2 2 5 > = > > > > > 7 5 r r i i ",
"w r 2 y p i i y w i i i p i u i i i g c E N.I.Y.Y.e.7.7.7.7.8.T.W.<.v z z z v I Z R x k x x y w y a a > > = - - > > 2 r i a i a ",
"9 r w y z a i y u u i p k u u i i p k v R E C.`.I.5.7.8.s.f..X#X/.-.x k z z I | 2.X.} ~ Z x a a x b v > - - - - > 1 2 i p a a a ",
"w 2 w i Z z a y e u g k x p p i i g g f e 8 U h.C.C.1.5.8.T..X!.V.R k k k v v /  . .~ R x x a x x z a > - - - - > 1 y r p a a a ",
"w y y a ^ v p u i i z v b k k g i g g e 8 * e K h.C.B.B.&.7.Y.V.' x k k k k v R ^ / ! v p y i p y w 3 - = & - : > 2 r p i a a a ",
"y i k x ^ v g i i k b R Z R v x v c k e 8 ; * e U n.B.k.B.5.V...E k k k c c c c b ! Z z 5 1 w 2 > - = = - - - > 1 w y i a a k k ",
"p v b b ! b k i i v ! ! R | ~ R ' E p w w ; 7 ; q U n.C.`.}.C.B.E c z c c c c k R R i w ; > - > - % & = = - > > 2 y y i a k k k ",
"p p k v z x g g b x v I R R x k c e w w w w 8 ; 7 t m.C.].}.`.x.E k z x c c k k v Z p 2 ; - % % & $ % $ = & > < 2 y a a k k k k ",
"z z c c f p i i v g p k k g p u e w w 8 8 8 w ; ; 7 K j.B.C.n.j.E z z z k g u u g k z 2 ; - & & = % $ $ $ % & < r u a a k k k z ",
"k z c z i u u u g u u u u i e w w < ; 8 ; ; 8 < 7 ; e U m.m.n.j.E k k a i w w w 3 i c 1 - & * & $ $ $ $ $ % > 2 y p p g v c k c ",
"i i i g i u u y y y y u u i w 2 - ; - * : 7 7 7 7 ; 7 t j.M.M.n.E i p u w 2 > > ; w v 1 & * & + $ $ + $ % > 1 y i i a k ~ b k R ",
"9 9 y u y w y y u y y u i i 2 < * * * * * * ; 7 7 7 ; e U ].].n.E p e w 1 1 ; : ; 3 c < & * $ & $ $ $ $ % < 2 y i a c !  .R v ^ ",
"w w e k w w g R R k i i i k w - # # # # = = = 7 < 7 < 7 L Z.[.{ P k i 2 < : - - - 2 a > % % & $ $ $ $ % > > 2 i a x R R | ! v ! ",
"a e p k w w g S b k i i g g 2 $ @ # # # # # # = ; ; < 7 r ^ '.Z.K i i 2 : = - = & 1 a > $ % @ & $ $ @ % = 1 y y a x b b / ! b ! ",
"a e p k e w e p u i i u g w : $ @ @ O @ # # = = = = < ; 2 h Z.{ U e e 1 - - = % % > a - # $ @ @ $ $ & % = 1 2 y a a b v / ! v I ",
"w w e e w w w w w e w e i 1 % @ + + O O * O # = = * = = = 7 ! Z.k.0 < : & - % $ % > a - # $ & @ @ $ $ % = > 2 y y a b ! / / I v ",
"w w w e w e w w w w u u u - # @ + o @ # # O = = = * * * = = t l.h.P < - - % % $ % & a & % > > > - - > > 1 2 r y r a v I Y R R b ",
"s f p e w k p w w w w i i % @ @ + o + # # # # = = * O O # = r Y l.[ 0 < * $ & $ @ > a % % % > > - = = > y r a a z z b ! ^ ! R R ",
"v z k i w z a u w w i p k $ @ @ + + + @ # O # = = = o O # # = K { z.K 9 & & $ + % > a = @ @ % > % % = > y a a x z z R / | ! b b ",
"R x a i w k a w w i i a p # @ + X + O @ O O # # = = X o O = = r Y c.[ 0 * $ $ $ # % a % @ % > 2 1 1 2 2 y y i b p a b / / v a r ",
"k p p p w k p w y g z k i # + @ o + @ @ + + $ * = =   X O # = ; h g.l.q $ % $ # $ > i % @ % > > y r 1 2 r < > a r b | A.X.I p a ",
"p p k e w g e w y p z z i % @ + o + # @ + + # # * = o o o O # = 0 Y c.h = % # # @ & y % @ % > 2 2 2 2 2 2 > > a p v ^ X.| I v ^ ",
"k v z f e k k w w u a a u = @ + o + @ @ + + # * * O # O O O @ # < j z.Y r % $ # @ = y % @ % % > = > 1 > > > = w a a b | | R R | ",
"E R S v c R k w 2 y i i w = @ + o + @ + + + # * = # # # o X @ # ; r Q z.P % @ @ @ = y % @ @ @ @ @ @ @ @ @ @ % = 2 r b / Z./ Y ^ ",
"^ k u w e S k e i i i p a - @ + + + + + O o # * = # * * # X # # = ; K Z.[ > @ @ @ - a % o + @ @ @ @ @ o @ # # % 9 i z v Z v z b ",
"R p w w e z a e r y y y y = @ o + + o + o o O * = # # # # X # # * ; h Z.l.r $ # @ - r # + + @ @ @ @ @ @ @ @ # % 7 a z v x z v Z ",
"v i w 9 e s e w 2 w y 2 w % + o @ @ + o o + @ * = = # # O X O = * * t b.c.k * # % - 2 @ o o @ @ @ @ @ o @ @ @ % 1 i z z k k v b ",
"v i w 3 e a e w r y w y y = @ + @ @ + o o + # # = = # O # X o # * * < z.c.P = $ = > > + o o o @ o o o @ @ @ @ # < i z z k x x x ",
"k e 3 8 w i a k z k g g p : @ + @ + + o o o @ = = = # # O o o # # % # Q Z.Y > r 9 2 @ @ o o o o o @ o @ @ @ @ # > a v x z z v v ",
"i w 1 9 e u p z R v z p w : @ + + @ + o o o # # # = = # O o X o # # o L { Q = < > - @ @ o o o o o o o o @ @ @ @ > i x v x z z v ",
"w 2 1 2 w i i g v z g p e - # + o o o o o + @ # = = = @ o o X o # % o t Q Y # = > > @ @ + o o o @ o @ o @ @ @ # = y a a l z z z ",
": 1 1 1 w u w w i w e i y - # + o o o X X o @ # # = = @ X X X o @ % o r L Y O = 1 1 $ @ + o o o o o @ @ @ @ @ @ = 2 i a a a z a ",
"< < < , w w w 2 2 w w w w - $ + X o o o o o @ # = # # O X X . X @ # # = t L o = 1 1 # @ o o o @ @ @ @ @ @ @ @ @ % > y a a a a a ",
"1 ; > 1 1 3 9 1 1 1 2 w w = # o X o o X o o # @ O O O o .   X o @ = # # r t O # > > % o o o o o @ o @ @ @ @ @ @ @ > 2 y r a i r ",
"> > , 1 < 1 9 2 1 3 2 2 w = @ + X X o o o o + + o o O o X X X o # # # O 7 t @ @ > > # @ o o @ o o @ @ @ @ @ @ @ @ > 2 r y y r y ",
"> > 1 < 1 1 1 1 8 8 2 2 2 & @ + . X o o o o o X X O # # # O o O # # @ O r t @ @ % = @ o o o o o @ o o o o @ @ @ @ = 2 2 2 y y y ",
"- : > > 1 1 1 1 1 2 2 2 2 & # o . . o o o + . X O # # # = = = = = # O O r j O O @ # + + o o o @ o o o X @ @ @ @ @ = > 2 2 2 2 y ",
"< 1 > 1 : 1 1 1 1 2 1 1 1 $ + o X . o o o o o o O @ @ @ O # = = = # = # = r = # # @ + o @ $ & : & % @   @ @ @ @ @ % = > > 2 2 2 ",
": < < < < 1 1 1 1 1 1 1 , $ + + X . . o o o o o o o O O O # # # # = = = = 7 = = = = % , 3 5 5 n n M 5 5 3 , , , > = = > > 2 2 2 ",
"- - : > > 1 1 1 1 1 1 1 < $ + + X . . o o . . X X X X O O # # # O # # = O = = = = = > M D O.O.O.@.q.q.J J 6 5 G a > = > > > 2 2 ",
"- - : < < > 1 < : 1 1 1 > $ + o X . . X o . . X X X X O + @ @ @ # @ # # # = # = * = > D @.@.@.+.$.q.%.@.@.@.%.q.Z 2 % = = > > 2 ",
"- - - - > - : < < 1 1 < : # + o . .   . X X X X o o X o O @ @ O @ O O @ O # O O # $ : N o.+.O.o.@.:.%.6.H J 6 5 > % % % = = > = ",
"= - - - - > - > > 1 < < $ # + o . .         X X X X X X X o X o o O @ @ O # # # # $ : 6 o.O.O.B @.$.o.6 5 5 3 & @ @ @ % % % % % ",
"- - - - ; : - - < : : & $ + + o .             . X . X X X X X X X o O O O O O O @ $ & 5 m B B B o.o.6 3 & & & @ @ @ @ % @ % % % "
};
