/* XPM */
static char *c2adbbbf146446e796db2ac39ec2589fngP1dtgDGQJPNMxS[] = {
/* columns rows colors chars-per-pixel */
"64 64 153 2 ",
"   c #43663A",
".  c #476C3D",
"X  c #496E3F",
"o  c #4A6F40",
"O  c #4D7442",
"+  c #4F7844",
"@  c #517C46",
"#  c #537F48",
"$  c #55834A",
"%  c #59864E",
"&  c #5A874E",
"*  c #58864C",
"=  c #58874C",
"-  c #58884C",
";  c #59884C",
":  c #58884D",
">  c #59884D",
",  c #59894D",
"<  c #5A884D",
"1  c #5A894D",
"2  c #59894E",
"3  c #5A884E",
"4  c #5A894E",
"5  c #5B894E",
"6  c #5B894F",
"7  c #5A8A4E",
"8  c #5B8A4E",
"9  c #5B8B4E",
"0  c #5A8A4F",
"q  c #5B8A4F",
"w  c #5B8B4F",
"e  c #5C8A4E",
"r  c #5C8B4E",
"t  c #5C8B4F",
"y  c #5B8C4F",
"u  c #5C8C4F",
"i  c #5D8D4F",
"p  c #5B8A4E",
"a  c #5C8B50",
"s  c #5C8C50",
"d  c #5D8C50",
"f  c #5C8D50",
"g  c #5D8D50",
"h  c #5D8C51",
"j  c #5E8D50",
"k  c #5E8D51",
"l  c #5D8E50",
"z  c #5D8F50",
"x  c #5C8E51",
"c  c #5D8E51",
"v  c #5D8F51",
"b  c #5E8E50",
"n  c #5E8F50",
"m  c #5E8E51",
"M  c #5F8E51",
"N  c #5E8F51",
"B  c #5F8F51",
"V  c #5E8F52",
"C  c #5D8E50",
"Z  c #5E9051",
"A  c #5F9051",
"S  c #5F9151",
"D  c #5E9052",
"F  c #5F9052",
"G  c #5E9152",
"H  c #5F9152",
"J  c #5F9053",
"K  c #5F9153",
"L  c #5F9353",
"P  c #5F9052",
"I  c #609052",
"U  c #609152",
"Y  c #609153",
"T  c #609252",
"R  c #609352",
"E  c #609253",
"W  c #609353",
"Q  c #619353",
"!  c #609453",
"~  c #619453",
"^  c #609354",
"/  c #619354",
"(  c #609454",
")  c #619454",
"_  c #619554",
"`  c #629454",
"'  c #629554",
"]  c #629455",
"[  c #629555",
"{  c #639555",
"}  c #629654",
"|  c #629655",
" . c #639655",
".. c #629755",
"X. c #639755",
"o. c #639656",
"O. c #639756",
"+. c #649756",
"@. c #619454",
"#. c #639856",
"$. c #639956",
"%. c #639957",
"&. c #649856",
"*. c #649956",
"=. c #649857",
"-. c #649957",
";. c #659957",
":. c #659A57",
">. c #659957",
",. c #659958",
"<. c #659A58",
"1. c #669B58",
"2. c #669C58",
"3. c #679C59",
"4. c #679D59",
"5. c #679E59",
"6. c #669C59",
"7. c #689E59",
"8. c #689E5A",
"9. c #689F5A",
"0. c #699F5A",
"q. c #699F5B",
"w. c #689E5A",
"e. c #68A05A",
"r. c #69A05B",
"t. c #6AA05B",
"y. c #6AA15B",
"u. c #6AA15C",
"i. c #6AA25C",
"p. c #6BA25C",
"a. c #6BA35C",
"s. c #6CA35D",
"d. c #6CA45D",
"f. c #6CA55D",
"g. c #6CA55E",
"h. c #6DA65E",
"j. c #6DA75E",
"k. c #6EA75E",
"l. c #6CA45D",
"z. c #6EA85F",
"x. c #6EA95F",
"c. c #6FA960",
"v. c #6FAA60",
"b. c #6FAA61",
"n. c #6FAA60",
"m. c #70AA61",
"M. c #70AB61",
"N. c #71AD62",
"B. c #72AE62",
"V. c #71AD62",
"C. c #73B063",
"Z. c #75B265",
"A. c #73B063",
/* pixels */
", , , H b.Z.Z.N.H 2 - $ @ + @ + @ + @ @ $ $ $ $ X X X $ # $ @ $ i n H z i , , , $ @ $ @ @ + @ @ @ @ @ $ ^ X.X.N X     . @ $ $ $ ",
", , , H C.Z.Z.b.H - - - @ @ + @ + @ + $ $ $ $ # @ X X X @ # $ $ n n n n , , , % @ $ # # @ @ @ @ @ @ # $ ^ X.X.I X     . @ @ @ $ ",
", , , H b.Z.Z.b.H - - $ $ + @ + @ @ @ @ $ $ $ $ $ X @ @ @ $ # $ n n n n , % , % @ @ @ @ @ + @ + @ @ @ $ ^ X.X.N X     . # $ $ $ ",
", , , N g.b.b.g.H , , - $ @ $ $ # # # # @ $ $ # @ X @ @ # # # # r r i i N N i N - $ - $ # # # $ $ 2 2 2 I ..^ , O . . . # $ @ $ ",
", , , a % , 2 0 i H T i , , , , , t t $ # + + # = 1 % % @ @ + + X $ + $ ` X.;...#.....H , = = H e.b.b.e.x - - $ + + + @ # # # # ",
", , , , $ $ $ $ n T T H x x a a t a t % + O O + 1 i t % @ O + O X X X + ..;.;.;.#.#...H , = = T b.Z.C.c.x @ $ @ # @ @ @ # # # # ",
", , , , $ $ $ $ n T T T i t t t , a a - + O O + = t t t @ O + + @ X X $ #.;.;.;.$.#.$.S i = % H b.A.A.b.N $ @ $ # + + @ # $ # # ",
", N , , $ $ # $ t i i t t % t , , % - - # + + + & t t t @ @ @ + X $ + @ ` #.;.;.#.#.$.S x i a ^ e.b.b.e.2 @ @ @ # + + # $ 2 $ $ ",
"L L H H = $ $ $ @ @ + + @ $ $ @ $ + $ $ + + + $ $ % % $ $ $ $ $ - $ $ $ R R R R } $.$.$.,.;.;...2 : : $ + o o o O O O # L L 5.5.",
"L ..L H $ @ $ @ O O O O + @ + + # @ + + + $ # + $ $ $ - $ $ $ $ - $ $ - z z R R } } #.2.3.7.3...$ @ @ @ o . o o O O O # c.c.c.c.",
"....L H $ $ $ $ O O O O + + + + + + + @ + + + $ $ $ $ $ - $ = $ $ $ $ - R R R R #.#.#.2.3.7.7...$ @ + O o o o o O O O @ 5.c.c.c.",
"x , x 2 $ @ @ @ + O O O + $ $ $ @ $ @ @ $ $ $ $ $ $ $ @ - $ $ = $ $ $ $ 9 r r z S S S ` ;.;.,.T $ $ $ @ O o O O # # $ $ L %.L L ",
"O O O + @ @ @ @ @ @ @ @ 2 = = = $ $ $ - % 0 % % + + + + = = = $ X $ @ @ $ @ $ $ - - = 2 i x i i $ $ $ $ # @ @ # x V J J $ # # # ",
". . . O + + @ @ @ @ @ $ 2 , , , - - $ % 0 0 0 % + o o O $ = = $ X X @ X @ X X @ @ $ $ = 2 , t % : $ $ $ # # # % ] ,.%.L @ o o O ",
". . . . @ @ @ @ @ $ @ $ 1 1 t , - $ - % a a 0 % + o o + $ % = % @ X X X + + + @ $ = $ $ - , a % : $ $ $ # # @ - ^ o.L L + o o O ",
"O O + O O @ @ @ $ = = = = = = % a 0 a x V x J 0 @ O O + , i i , - $ - $ X @ X @ + @ @ $ , N N N 0 2 2 $ $ @ @ $ V ^ J J @ + + + ",
"a , % % @ @ @ @ V ....Y $ # @ % j  .X.X.X.X.,.^ # @ + @ T X.#.#.2.2.3.#.O X X X @ @ @ $ j  . . .L L %.V @ @ O @ $ $ - $ @ @ @ @ ",
"......N # @ @ $ ..q.3.^ # + + $ Q 7.7.3.7.3.7...$ @ @ # ;.7.3.e.x.b.x.e.O . . X X X X $ j &.&.;.5.5.3.K @ O O O @ @ @ @ $ $ $ $ ",
"^ ^ ^ N # @ + # o.q.3...$ @ + # Q 7.7.3.3.3.3...$ @ @ # #.3.3.e.b.b.b.e.O . X X X @ X $ n ;.;.;.3.3.3.O.$ O O O @ @ @ @ @ $ $ $ ",
"^ T ^ N # # # $ V ^ ^ N $ # # = j  .Q X.X.;.;.^ $ # # $ ..;.;.;.e.e.e.$.O X X X X @ O # i T n I K K K a @ O O + @ @ @ $ $ $ $ $ ",
"a N N N 6 % % % @ @ + $ a K V x ; $ $ = a N N N % = = % j T I I 2 , 2 2 $ $ $ $ $ @ X $ # # # $ @ + + + + @ + @ @ @ $ $ - - - - ",
"a a a a a a a % O X o O x O.%.K $ @ X @ = , , % , , t , j j j j @ + + @ - 1 - - $ @ @ @ + + @ X O o . o + @ @ @ $ $ $ $ - % , % ",
"a a t a a a a % O o o + N #.%.K $ X @ @ = % , t , t , t j i j e # + # $ 1 1 1 - $ @ @ @ @ + + O o . . O + + # + $ $ $ $ % % % , ",
"% % % & a a i % @ O O @ x L L x ; @ @ @ $ = = % = = % = 1 1 e e # # + + $ - $ - $ $ ; $ # $ # @ O O O O $ $ $ $ $ - $ = % - - - ",
"+ + + @ t j j j T T T i a - - $ ; $ = $ @ @ @ @ # # # # @ @ + # + + @ + @ @ @ - ;.e.e.7.;.X.X.T = $ $ = n  . .n a , 1 1 = = = $ ",
"O O o + t j j T `  ...T 2 $ $ - $ = = $ @ + O @ # @ # # + X X X + + + @ @ # @ $ 7.f.k.k.7.3.7.X.i $ = 1 ` &.&.` N a , t $ $ $ $ ",
"O O O + t i j T ` X.X.T 2 $ $ - $ = = $ @ + + + # @ @ # O O O O + + + @ @ @ @ $ 7.f.f.f.e.7.7..., = = 1 ` &.&. .a , t t = $ $ $ ",
"O O + + t i i i ` ....T 0 $ $ $ = = = $ + + + + # $ $ # + O O O # + @ @ # # # $ 7.e.f.e.,.,.;...1 = = t n &.&. .t % , % = = = = ",
"# # # # # # # $ i H N N $ @ $ $ $ $ = $ O O O + V ^ ^ V # + + @ % % , % L L %.L 1 $ $ $ $ ; @ $ $ $ $ 1 n R  .i $ @ @ @ Q  . . .",
"$ % $ $ # @ @ # , N N N $ $ @ $ $ = $ $ O o O + V ..X.^ # + + @ , , a N 3.c.q.%.$ $ @ + X X X @ @ = $ - n R n i X X X @ Q ;.;.;.",
"$ $ $ $ # @ @ # N N N a $ @ $ $ $ $ $ # O O o @ ^ ....^ # + + + , t a V 3.q.q.%.$ X @ $ X $ @ @ $ $ $ - n R R r @ X X @  .;.;.;.",
"% % % $ # @ @ # N N T a % $ $ $ = = % $ + O O O ^ o.o.O.# # @ # t i h K 3.3.q.,.; @ @ X $ X X @ @ $ $ = n n R r @ $ + # T X.X. .",
"X.X.X...N i i H 7.u.k.e.3.;.,.,.2.2.2.` ; X X $ f.B.N.x.n j j j 7.s.e.u.7.,.3.X.@ X @ # $ ; $ $ # @ @ @ = - - i H ..X.I @ + O + ",
"X.X.X.X.N i N H u.k.k.k.3.,.3.,.2.2.2.` $ $ X $ x.C.C.B. .j j I u.k.k.s.7.,.;.X.$ @ X $ $ ; = $ # @ @ @ $ = - , ..;.;.^ @ O O O ",
"o.,.X.X.N t i H e.k.k.u.e.3.,.3.7.7.2.` $ X X ; x.B.C.B. .j j T u.s.k.e.7.3.,.X.@ X X @ $ ; ; $ # @ @ @ = = % , ..;.X.^ @ O o O ",
"X.X...^ i , , i q.k.z.u.,.......&.&.2.` r X @ $ x.C.C.B.T 1 1 1 7.7.3.7.X.X.X.` # @ @ @ ; 1 = = # @ @ # % i i N T ..X.T @ X O O ",
"I t N % $ + + $ 3.z.k.3.i = $ $ ; ; $ $ $ = $ i x.C.C.B.$ @ + @ $ $ @ $ % % % = = = $ 1 ` ;.;.I = # # t ;.p.s.7.` I I j @ + X + ",
"& t t = + + + $ 3.z.x.e., $ $ $ # @ # $ = = 1 n x.C.C.x.; X X @ + @ @ @ = = = = = = = t } ;.;.` = $ $ & 7.s.s.p.` n S i @ O X + ",
"1 t t = + O O $ 3.x.g.3., $ $ $ $ $ $ $ = = = T x.Z.C.m.$ X @ X + # @ @ $ = = $ = = = r  .&.;.` j # $ t 3.s.s.q.` n j j # @ @ X ",
"t t t = $ + + = $.a.a.2., $ = $ $ @ @ $ t t t T k.x.x.f.$ O @ + $ $ $ $ $ $ $ $ 1 1 1 i R  .{ I = $ $ t X.7.7.3.` R I j # X @ # ",
"j t t t , , t i N H H T T T T i @ X X r &.y.y.2.I j j t = $ $ 1 e.g.g.3.+ o O + I ] ] I ; # # $ $ $ $ $ ; $ - r ` `  .` = $ # $ ",
"i j N i T N H N i , , i ` X...H ; @ X $ 2.k.k.e.= $ # $ = = = r b.Z.Z.z.+ X o O I X.X.I $ @ X $ $ $ $ $ @ @ @ $ ` &.&. .= $ $ $ ",
"i i i N H N N N i , , i ` ....N $ @ X ; ;.f.f.e.< $ $ $ = = = t b.C.C.g.+ . X O I X.X.I $ X + @ @ ; $ $ @ @ @ $ R &.&.&.; $ $ $ ",
"t 1 , t H T ..T 2 - - i T ....I $ X $ ;  .2.2. .< $ $ $ $ $ = 1 g.z.z.3.@ O O + j Q Q t @ @ X @ ; 1 r - $ @ @ $ r n n j ; $ $ $ ",
"# # # $ ..,.3...= $ + - n ` ` T < ; ; $ ; $ $ ; < % $ $ % # # % H ` T T $ $ # $ $ % = $ O X O # n 7.7.T $ X @ @ @ $ @ $ @ $ @ $ ",
"+ + + $ ,.7.7.,.- + + $ n ` ` T e e e ; @ + X @ $ < < % # @ @ # , , 1 t = = = = # $ $ @ + X X # ;.f.f.;.; X X X X X X X @ @ @ @ ",
"+ + @ # ,.7.7.,.$ + + $ n }  .T j e e ; $ X # # % $ & & # @ @ # , t , t = = = = $ # # @ O X O # &.f.f.;.# X X X X + X @ @ @ $ @ ",
"= = % t ..,.X...$ + + $ 2 H j j j e e e $ # @ # # % # # @ @ + @ % , % = = = = $ $ # # @ O X O #  .7.p. .; $ ; @ + X X X $ $ $ $ ",
"0.0.0.;.Q n T j @ + # # $ ; $ ; a a a a $ $ $ # @ # @ @ + O O + $ $ $ $ = = = = @ # # @ O O O @ i  . .Q S H n , O O o O # % % % ",
"m.m.x.f.n 1 t = # X X $ X ; $ $ % a a a % - = $ @ @ @ @ X X X X + + $ + $ $ = $ $ # # @ O O o @ 1 T T T } } } n O X . O % t t t ",
"x.k.m.f.n i e ; @ X @ X $ X X ; % a 6 6 % = $ $ @ @ @ O X X X X $ + $ $ = $ = $ # # # @ O o O @ , H T T ` } ;.i O X X O = t 1 t ",
"y.7.7.7.n i i 1 @ X X @ $ $ $ ; $ % % % % % = = @ O @ @ # # $ # $ $ $ $ $ = = = - $ $ $ @ @ @ @ t H T T ` n n , # @ @ @ t T j j ",
"$ ; j r } }  .I # X X X $ $ $ $ # + + # % t , % @ + X $ 0.f.s.t.z z z z , = = , x K ^ K , - % , N T T N = $ $ = j T j Q  .;.7.;.",
"X X X X } 1.;.` X X X X $ $ ; $ + O o + $ a a % @ O X # c.Z.Z.A.L L S R , = = , O.%.,.O.H x N N T T T i $ @ @ $ Q ;.;.;.7.7.7.p.",
"@ X X # ` 1.;.I X X . X # ; ; # O o O + % a a % @ X + # c.Z.Z.A.L S L S 1 = % t ..,.,.O.G x x x H T T i $ @ @ $ ] ;.;.;.0.0.7.q.",
"$ # ; ; ` { ;.I ; ; @ @ # $ $ # # # # $ a N Y a @ @ @ @ p.c.c.f.S i z z 1 1 = & ^ ] ..^ 0 0 0 0 T T ..N $ $ $ = T ] Q Q Q  . . .",
"N N N H T ....X.p.f.f.;.$ X X ; I ,.7.,.,.,.,.X.2 $ $ $ i Z Z i + + @ @ % , , , 0 x 2 2 $ # $ % T ;.X...H , a a % $ $ $ @ + + + ",
"......^ ^ T T ;.c.C.C.y.@ X X $ ..k.s.s.7.7.7.o., - 2 = - 2 $ - + + O + - % , , 2 2 2 - # + @ $ ` ;.,...K N N a $ # # # X X X X ",
"K ......T ^ T X.c.C.C.y.$ X X # X.s.s.s.7.3.3.X.i - - = - $ - $ O O O + 2 , , , 0 - 0 $ # + + $ T ;.;...K H x x $ # # @ o X X X ",
"H H H K H H T ` f.k.k.2.$ X X $ X.u.s.q.7.3.,.X., - = - - 2 2 $ + O O + i i N i - 0 $ $ $ $ $ $ H ......N N x 0 $ # # # + O O O ",
"@ @ $ $ & j t t = = = $ # @ @ $ V ,.,.X.V N N N 2 - - = = - = = # $ $ 2 g.x.x.e.$ O O # j  . .I = # # $ % % % - $ @ + $ & t , t ",
"@ @ @ @ = t t = # @ @ # # # @ $ N ....^ a a a , - - = - - - = - $ $ $ , z.C.b.x.+ o O # n ;.;.I $ @ + @ # - $ $ @ @ @ @ t I H N ",
"@ + @ @ = & j = # @ @ # # @ # % N ....^ N a , , 2 - = = $ 2 : : $ $ $ , b.N.Z.g.$ O O @ n 7.;.I # + + @ # $ $ $ $ + @ $ i n i H ",
"+ @ @ # = j = = # @ @ @ @ # @ $ Y ^ ..^ N % , 2 - = = - : : : $ $ $ $ i b.N.N.x.@ O X @ n ;.;.I $ + @ @ $ $ - - @ @ @ @ i H n H "
};
