/* XPM */
static char *fae32fb39e1049eedff7903c76b3d387vqwVXymm8eZAQ32K[] = {
/* columns rows colors chars-per-pixel */
"64 64 224 2 ",
"   c #251B1D",
".  c #271E21",
"X  c #1D2C3C",
"o  c #2B2124",
"O  c #2D252B",
"+  c #2F282D",
"@  c #31272A",
"#  c #332A2D",
"$  c #372B29",
"%  c #222E3E",
"&  c #282935",
"*  c #342C32",
"=  c #342E39",
"-  c #3A2E32",
";  c #3C3134",
":  c #3C343B",
">  c #35303A",
",  c #28303D",
"<  c #473939",
"1  c #513F38",
"2  c #476C3D",
"3  c #496E3F",
"4  c #43663A",
"5  c #56423D",
"6  c #232F41",
"7  c #243344",
"8  c #2B3645",
"9  c #2E3947",
"0  c #383844",
"q  c #1F3142",
"w  c #453C45",
"e  c #3B4655",
"r  c #4D4246",
"t  c #49464A",
"y  c #51454A",
"u  c #574848",
"i  c #484A57",
"p  c #564F54",
"a  c #595659",
"s  c #4D5256",
"d  c #695246",
"f  c #73594C",
"g  c #655555",
"h  c #755E55",
"j  c #624E48",
"k  c #4A6F40",
"l  c #4D7442",
"z  c #4F7844",
"x  c #517C46",
"c  c #537F48",
"v  c #507646",
"b  c #7B6257",
"n  c #647E5E",
"m  c #5A5B67",
"M  c #4B5461",
"N  c #5D646F",
"B  c #706F71",
"V  c #705F64",
"C  c #85695A",
"Z  c #9A7358",
"A  c #A27B5D",
"S  c #8A7368",
"D  c #967867",
"F  c #8E7874",
"G  c #8E7773",
"H  c #A76B67",
"J  c #A47A65",
"K  c #55824A",
"L  c #58864C",
"P  c #5B8A4E",
"I  c #5D8452",
"U  c #5D8D50",
"Y  c #5F9152",
"T  c #638959",
"R  c #619454",
"E  c #639856",
"W  c #659957",
"Q  c #649956",
"!  c #679C59",
"~  c #689E5A",
"^  c #67935C",
"/  c #6CA45D",
"(  c #6EA85F",
")  c #6A8764",
"_  c #718E6A",
"`  c #6D9962",
"'  c #769B6C",
"]  c #7C9775",
"[  c #788A76",
"{  c #6FAA60",
"}  c #6FA760",
"|  c #70AB61",
" . c #77A46B",
".. c #75B265",
"X. c #7DA373",
"o. c #9C8373",
"O. c #A8836A",
"+. c #B28C6E",
"@. c #AE8B74",
"#. c #AD8D7A",
"$. c #A58677",
"%. c #B28D73",
"&. c #BD8B7A",
"*. c #B68B79",
"=. c #B3917B",
"-. c #BB957C",
";. c #BD997E",
":. c #B79375",
">. c #AF907E",
",. c #86A87E",
"<. c #C0997F",
"1. c #797B86",
"2. c #7C8182",
"3. c #81838A",
"4. c #9A8D88",
"5. c #8A9789",
"6. c #95959B",
"7. c #868A95",
"8. c #AC938A",
"9. c #B59583",
"0. c #BB9683",
"q. c #BC9A85",
"w. c #B59B8C",
"e. c #BB9C8B",
"r. c #B69789",
"t. c #B79B91",
"y. c #AC8C83",
"u. c #8CA783",
"i. c #98AC8C",
"p. c #8EB283",
"a. c #98B590",
"s. c #BEA597",
"d. c #A4B998",
"f. c #BAA792",
"g. c #9697A4",
"h. c #9EA0A8",
"j. c #B0AEAD",
"k. c #C48E82",
"l. c #C49484",
"z. c #C29C83",
"x. c #C39D8B",
"c. c #C9968B",
"v. c #CA9796",
"b. c #D2999C",
"n. c #C4A18C",
"m. c #CAA48D",
"M. c #C7A38A",
"N. c #C4A395",
"B. c #CBA493",
"V. c #CCA994",
"C. c #C4A599",
"Z. c #CCAA9B",
"A. c #C7A89A",
"S. c #D2AD96",
"D. c #D2AD9C",
"F. c #D5A89B",
"G. c #D5B29D",
"H. c #DAB59F",
"J. c #C9ABA2",
"K. c #D3AEA2",
"L. c #D9AEA4",
"P. c #C9B6AA",
"I. c #D5B3A2",
"U. c #DCB4A4",
"Y. c #DDBBA5",
"T. c #D5B6AB",
"R. c #DBB6AB",
"E. c #DDBBAC",
"W. c #D3BBAE",
"Q. c #CCB8B4",
"!. c #DCBCB2",
"~. c #D8BBB4",
"^. c #E1BCAC",
"/. c #E4BBAA",
"(. c #E3BEB2",
"). c #A3C19C",
"_. c #B9C7B5",
"`. c #B4C9B0",
"'. c #C5C7B6",
"]. c #D6C5BC",
"[. c #E3C1AD",
"{. c #E4C2B4",
"}. c #E9C3B6",
"|. c #E5C6BC",
" X c #EAC5BB",
".X c #EBC9BE",
"XX c #F0C8BA",
"oX c #BFB9C5",
"OX c #C7C6CC",
"+X c #D9CBC5",
"@X c #C8D3C7",
"#X c #DCD1CA",
"$X c #CDCAD4",
"%X c #D4CEDA",
"&X c #D7D4D8",
"*X c #CED8D2",
"=X c #ECCCC3",
"-X c #E7CBC5",
";X c #F3CDC5",
":X c #FAD8D5",
">X c #EED8D3",
",X c #DBE1DC",
"<X c #DDDBE3",
"1X c #DEDAE8",
"2X c #DEDBF0",
"3X c #E2DEEC",
"4X c #E1DBE5",
"5X c #E1DEF1",
"6X c #DDE3E1",
"7X c #E4E4E4",
"8X c #E3E2EC",
"9X c #E9E7EB",
"0X c #E6E2F3",
"qX c #E9E6F5",
"wX c #EDEAF4",
"eX c #EEEBFA",
"rX c #E9E5FA",
"tX c #F2EEFB",
"yX c #F1EDF5",
"uX c #F4F2FD",
"iX c #F9F6FE",
"pX c #FBF9FF",
"aX c #F1F0F5",
"sX c #F2EFF3",
/* pixels */
"P P L Y | ....| Y P L K K z z z x z c z K K K K 3 3 x 3 c K x K U Y Y Y P P P L K z K K z z K z K K z K Y ! E Y 3 4 4 2 K K K K ",
"P L L Y | ....| Y L L L K z x x z z z K K K K x x 3 3 x x c K K P Y Y Y P P P P K K z z z K z z z z z K Y E E Y 3 4 4 2 z K K K ",
"P P P Y | ....{ Y L L K x z x z z c z c K K K K 3 3 3 K x K c K Y Y Y Y P P P L K z K K z z z z z K K K Y ! Y P 3 4 4 2 z K K K ",
"L P L Y / { { / Y P P L K x K K c c c K K K K c K x x x c c c c P P P P Y P P L K K K K K K K K K L L L Y E Y L l 2 2 3 x K z K ",
"P P P P L P P P Y Y Y Y P P P P P P P L x z z c L P P P x x z x x x z x R E E E Y Y Y Y L L L Y ~ { { / P L K K x z z z K K x K ",
"L L P L K K K K Y Y Y Y Y P P P P I P P c l l z L P P P x l l l 3 3 3 v E E W W / Y / Y P L L Y { ....( P K K z x x x x K z K x ",
"P L P P K K K K Y Y Y Y Y P Y P P P P L z l l z P P U P x z z 3 x 3 4 z E ! W W / Y ! Y P L L Y { ....{ P K K K x x x x K K x K ",
"P P P P K K K K P P Y P P P L P P L P L x z z z P U T P I ) [ ,.,.5.,.,. .~ W W Y / Y Y Y U U Y ~ { { ~ P K z K x z z z K L K K ",
"E Y Y Y K K K K K K K l K K K K K K c K z z z K L I _ n m p s i w i p m 1.j.u.R R Q Q Q E E Q R U L L c l l l l l z z x E ! ! ~ ",
"E Y E Y K K K z l 2 l l l z z l z c z z z K z K I n m 0 * = > > = 0 0 w w m 1.5.^ Q Q Q ~ ~ / R K x x v l 2 2 2 l l l c ! ( ( ( ",
"Y E E Y K K K K l 3 l 2 z z z z z z c z z z K I a : O . o @ + + + = = = = 0 w a 6.~ Q Q ~ ~ ~ R K x x v 2 2 2 2 l l l c ! ( / ( ",
"P P P L K z z K z l l K z K K K z c c c K K n > O o . . o + + + # + * = * & * = 0 3.^ R Q Q Q R K c c x l l l l x c c K E ! E E ",
"l l l z K z K K z z z K K L L L K K K L L n *           O * ; : : * @ @ @ @ # : w i 2.U U U U P L K K c x x v K U U Y U K K c c ",
"2 2 2 2 z z l z K K K K L P P P L L K P [ t O o . o o o @ $ < r y w - < - ; < w w w s ) L U P P K K K K c K K K E E E Y z k k k ",
"2 2 2 3 z z z z z K K K L P P P L K c ' y * # # $ o o o o $ < u p y w < w w y w y w w a U I U P L K K K K x K L Y E E E z l l k ",
"l z z z l K z K K K K P K P K K P U T 5.* O $ - - < $ $ $ < 1 u j j u w p g g p a w w w I U U U P P P P K c x K U Y Y U x z l z ",
"P P P P x z z K Y E E U K c x K Y E } a = # - < < 1 < 1 1 d f b C h g g V V V a g y w 0 p R R R E E E Y c l z z K K K K c c c c ",
"Y E Y Y K z z K E ! ! E K v v K R ! ..: * ; 1 d b h f f C D $.=.r.$.D S F F F S h j y w ; ! W W E ~ E E c l l l x c x x K c c c ",
"Y Y E Y K l z K E ! ! E K l v K Y ! 2.& $ 1 f Z O.O.o.O.O.z.m.Z.G.V.x.w.t.t.t.w.4.S g w * ~ R E E ! ! E c l l l z z x x c K K K ",
"Y E Y Y K K K K U E Y U K K K K Y R X.& $ d D -.<.M.M.V.S.G.H.H.Y.Y.Y.T.T.T.~.~.K.8.S p - ` T R E U E P x l l l c c c c K K K K ",
"U U U U K P P K x x v K P Y Y U P K _ @ < C :.z.m.S.G.H.G.[.Y.H.Y.Y.[.Y.[.{.|.|.~.J.8.B < _ c c v v x x x x x x c K K K L L L L ",
"U P P U P P P P z 2 2 x U E E Y K z ) ; d Z :.M.m.S.H.Y.[.H.[././.[.[.[.{.|.|.|.|.T.e.G p ) z l l 2 2 2 v x x c c K K K L P P L ",
"I U U P U P P L l 2 2 l Y E E Y K 3 T u b O.-.M.V.G.Y.[.[.[.[.[.[.[.}..X=X=X-X|.{.R.C.y.B ,.z l 2 2 2 l z x x x K K K K L L L P ",
"L I L L U U Y L x l z K P E Y Y K K L B o.O.;.q.V.I.Y.[.].[.[.{.[.}..X.X=X=X-X-X{.E.Z.8.6.u.K x v l l l x K K K L K K L P L L L ",
"z z z x P Y U Y Y Y Y Y L L L L K K ` 4.D @.;.w.f.J.P.T.E.!.^.^.[.[.[.~.Q.P.Q.Q.~.R.A.t.j._./ Y P K K L Y Y Y Y P P P L L L L K ",
"l l k z P Y U Y Y E E Y L L L L L P '.j.o.#.q.w.e.w.8.#.9.x.Z.I.H.V.q.$.$.#.e.C.I.G.Z.s.Q.#X'.p.P K L P Y E ~ E U P P P L K K K ",
"k k k x L Y U U Y ! E Y L L K K L i.Q.s.o.#.9.9.y.$.D C J +.<.S.S.;.@.Z h C D $.x.A.A.N.~.~.!.>X` L L P E ! ~ Y U P P P K K K L ",
"x l z x I U U U Y Y E Y L K L K T T.0.q.$.#.:.+.O.G V h D O.<.m.S.;.@.D h j h D %.x.Z.A.T.c.c.~. .L P Y Y Y Y Y P P L L L L L L ",
"K K K K K x K K Y Y Y U L K K K ' E.<.k.*.=.:.%.#.8.4.F y.0.m.H.(.U.c.8.y.8.t.v.A.K.I.Z.B.F.I.Q.^ K K L Y Y Y Y x z l K Y E E E ",
"K K K K x x x x Y Y Y P K c c K ' ].c.<.=.-.;.M.n.C.N.e.x.c.S./.;X{.I.K.J.J.T.].!.!.T.V.<.k.I.+XL K K L Y Y Y Y z l l z E E E E ",
"K K K K x x x K P Y Y P K c c K ] #XD.<.*.q.m.Z.I.H.G.D.D.S.H.XX:X.X(.(.(.(.|..X=X(.U.B.&.k.T.d.K K K L Y Y Y P z l l x Y E E E ",
"L L L K x x x K Y Y Y U L K K K ^ #XR.k.=.q.V.H.Y.^.Y.Y.Y.U./.XX:X;X X X(.(. X.X.X!.K.v.L.b.+X] K K K L Y Y Y P x z z K Y E E E ",
"E R W R U P Y Y / / / / / W W W ! '.~.l.=.;.m.G.^.(.(.(./././.XX:X:XXX(.(.=X(.;X|.T.A.C.L.(.j.^ c x x c K L P Y Y Y E Y K l z z ",
"E E W R Y U U Y / / / / W W ! ! ! a.+Xz.9.0.f.Z.R.(.(.(./././.XX:X;X=X(.(.XX=X(.E.J.N.N.L.-Xd.K c x x x K L L P Y ! ! Y z l l 3 ",
"E Q W R Y P Y Y / / ( / / Q W W ! / _.V.e.9.e.B.I.!.(.(.L.F.F.F.R.F.F.R.(.(.(./.I.A.N.A.~.>X' K c x x x L L K P ! ! Y Y K 3 l 3 ",
"Q R W W P P P Y / / / / W E E E Q E  .i.s.e.9.n.Z.R.(.(.L.l.&.&.<.H *.L.(.(.^./.D.A.J.~.].u.U L c x x c L U U U Y ! ! Y x z 3 z ",
"P P Y P K x x K Q ( ( ! P L K K K K K L a.W.e.e.c.D.E.(.R.S.c.A.b.K.T.=X;X XE.K.A.C.].&Xp.E R R L c K P E / / ~ R Y Y U x x 3 x ",
"P P P P x 3 3 K Q / ( ~ L K K K K K K K U i.A.q.n.V.I.~.R.K.D.I.L.^.~.-X(.(.I.V.s.P._.^ Y ! ! R L K K P ~ / / ~ R Y Y U x 3 x 3 ",
"P P P L x z 3 K W ( ( W P K K K K K K K P ` j.q.q.M.V.G.N.r.0.c.v.v.C.C.D.I.D.x.f.].' U R ! ! R P K K P ! / / / R Y Y U K x 3 3 ",
"P P P P x x K K W / / ! U L K K K x x K P P d.w.q.q.M.q.J H H H H H H H 0.x.n.e.w.+XT U Y R R U L K K I R ~ ~ ! R Y Y Y x 3 x K ",
"U U P P P P P Y Y Y Y Y Y Y R P x x x L R / ,.'.r.;.;.;.:.-.c.b.v.v.v.k.z.;.-.9.s.d.Y U L K x K K K K K K K L P R R R R K K c c ",
"U U U Y Y Y Y Y U L P U R Q R Y K 3 3 K W ( { d.w.=.:.;.;.z.l.k.k.0.k.l.<.-.%.=.Q.} E Y x z z x K K K K K x x K R Q Q Q L K K K ",
"U P U P Y Y Y P U U L Y R W W Y K 3 x K W / { ,.w.@.:.:.z.x.z.0.&.<.l.x.<.:.%.=.].^ E Y K z v x K K K K c x x K Y Q Q R P K K L ",
"P P P P Y R R R L L L Y Y R R Y L x x L R W ~ / f.=.+.%.;.M.S.D.D.D.Z.m.q.%.@.e.#X .R U x l l x P P P P x x x K U Y U U L K K c ",
"x K x L Q W ! Q K K x L U R R R P L L L L L P ,.+XN.:.+.:.z.m.V.B.m.<.:.+.+.;.W.<X<X` c v k l c R W ~ R K 3 x c c K c K c K K K ",
"3 K 3 K Q ~ ! Q L K 3 L U R R R P P P L 3 K T #X4X+XJ.-.+.+.+.@.O.O.O.O.O.e.].7X0X8Xu.c l k k c Q / / Q L 3 3 3 3 3 3 3 3 K c c ",
"K 3 3 L Q ! ~ Q L 3 3 K Y R R R U P P L x T *X9X0X8X#XW.e.+.A Z Z Z Z J e.].7XuXqXwX@XY l k k c Q ( / Q K 3 3 3 3 3 3 c 3 c c c ",
"P Y L P Q Q Q Q K x K K L U U U U P P K T @XyX3XrXeXwX9X+Xn.@.O.A A +.-.#XsXiXsXrXqXeX`.I l k c R ~ ~ Q L K L c c 3 3 3 L c K K ",
"~ ~ ~ ~ Y Y U U 3 c K x L L L L P U U X.,XeX0X0XqXrXuXuXeXoXy.C S G 8.+XsXiXiXtXrXeXtXwX@X) v x P Q Q R Y Y Y K 3 3 3 l L L L L ",
"{ { ( ( Y U P L K 3 3 3 3 L x L Y X._.eXuXeXwXqXqXrXuXeX%X3.p t u p V g.7XiXiXtXeXeXuXuXuX1Xa.' W W Q Q E E E Y x 3 2 l L L P P ",
"{ { ( / U L L K c 3 c ^ i.`.'.*X,XqXeXuXuXeXeXwXwXeXeXqXOXm & , 9 0 m 6.+X9XuXuXeXuXiXiXuXuXiXsX,X,X>XsX6X'.d.,.c 3 3 l L L P P ",
"~ ~ ~ ! Y U U K L ,.].iXuXuXuXuXuXuXuXuXuXaXeXeXrXeXeX0X$XB 0 % 8 i 3.%Xj.%XyXuXuXuXiXpXiXiXiXiXiXiXiXiXiXiXaXiX7X,.c c P U T R ",
"K K P P R R R ,._.7XuXuXuXeXuXtXuXeXuXuXeXaXuXaXuXeXeXwXwXoXB % % 2.$XeX4XOX%XtXuXuXiXiXiXiXiXiXiXiXpXpXiXiXuXuXuXaX_. .! ! W W ",
"x 3 3 x Y ,.`.,XuXtXtXuXtXuXtXuXuXuXuXeXuXuXuXaXeXeXeXuXuX1Xg.8 % 6.6XiXyX4X%X4XuXuXiXiXpXiXpXiXpXpXiXpXiXiXiXiXiXuXuXwX`.| ~ ~ ",
"3 3 x P ,.7XsXuXtXtXtXtXyXuXuXtXeXuXuXeXuXuXuXuXaXeXaXuXiXrXg.9 % 1.OXiXiXsX3X&XwXuXiXiXpXiXpXpXiXpXiXpXiXpXiXiXiXiXuXuXaX,Xa./ ",
"K K U d.sXsXsXuXuXtXtXuXtXtXuXtXuXuXuXuXeXuXuXuXqXwXuXuXiX6Xg.7 % M g.iXiXpXiX9X9XuXiXpXpXpXpXpXpXpXiXpXiXpXpXpXiXiXiXiXiXiX7Xd.",
"R ^ _.4XrXtXtXtXtXtXuXtXtXtXuXtXuXeXuXeXuXuXuXiXuXuXuXuXuX$X1.X % 8 1.6XiXiXiXiXpXiXpXpXpXpXpXpXpXpXpXpXpXpXiXpXpXpXiXiXiXiXuXwX",
"R a.5X3XeXtXtXtXtXtXtXtXuXtXuXtXuXuXuXuXuXuXiXuXiXuXiXuXuXh.N q X % N $XuXiXpXpXpXpXpXiXpXpXpXpXpXpXpXpXpXpXpXpXiXpXiXiXiXiXiXuX",
"X.*X3X3XeXtXtXtXtXtXtXuXtXuXtXuXuXeXeXuXuXuXiXiXiXiXiXiXuXg.e q % % m j.aXpXpXpXpXpXpXpXpXpXpXpXpXpXpXpXpXpXpXpXiXpXiXiXiXiXuXuX",
"`.3X3X3XwXeXtXtXtXuXtXtXtXtXtXtXuXeXuXuXuXiXuXiXiXiXuXuXuX2.e q % % M h.sXpXpXpXpXpXpXpXpXpXpXpXpXpXpXpXpXpXpXpXpXiXiXiXiXiXiXuX",
"<X8X3X0XrXqXyXtXtXtXuXtXtXtXtXuXuXuXuXuXuXuXiXuXiXiXuXuX5X2.7 q 7 7 M g.wXpXpXpXpXpXpXpXpXiXiXpXpXpXpXpXiXpXpXpXiXiXiXiXiXiXuXuX",
"8X3X2X3X0X0XqXtXtXtXuXuXuXuXuXtXuXeXeXuXiXiXuXiXiXiXuXiX%X1.7 7 8 8 e 2.9XpXpXpXpXpXpXpXpXpXpXpXpXpXpXpXiXiXpXiXiXiXiXiXuXuXuXuX",
"2X3X2X3X0X0X0XeXeXuXaXuXuXtXtXuXuXuXuXuXuXiXuXiXuXiXiXuX1X1.7 7 7 7 M 1.9XpXpXpXpXpXpXpXpXpXpXpXpXpXpXpXiXiXiXiXiXiXuXuXuXuXeXeX",
"<X5X2X2XrX0X0XqXtXuXuXtXuXuXtXtXuXuXeXuXiXuXuXiXuXuXiXaX$X1.7 7 7 7 e B 7XpXpXpXpXpXpXpXpXpXpXiXpXpXpXpXiXiXiXiXiXuXuXuXuXuXuXeX"
};
