/* XPM */
static char *_5dc18c1a0ac481ad492aed3b3f1cfb0SRZCiK6pQMuPBouk[] = {
/* columns rows colors chars-per-pixel */
"64 64 162 2 ",
"   c gray66",
".  c #A4A4A4",
"X  c gray62",
"o  c gray61",
"O  c #A5A5A5",
"+  c gray63",
"@  c #A0A0A0",
"#  c #9F9F9F",
"$  c #959595",
"%  c gray58",
"&  c #9D9D9D",
"*  c #9B9B9B",
"=  c #989898",
"-  c gray60",
";  c #929292",
":  c gray57",
">  c #939393",
",  c #6A6A6A",
"<  c #646464",
"1  c gray43",
"2  c #9A9A9A",
"3  c #909090",
"4  c #979797",
"5  c #8E8E8E",
"6  c #8D8D8D",
"7  c gray56",
"8  c gray40",
"9  c #606060",
"0  c gray42",
"q  c gray55",
"w  c gray50",
"e  c gray54",
"r  c #8B8B8B",
"t  c #7B7B7B",
"y  c gray51",
"u  c gray52",
"i  c #848484",
"p  c #818181",
"a  c #838383",
"s  c #808080",
"d  c #656565",
"f  c gray38",
"g  c #6C6C6C",
"h  c #888888",
"j  c gray53",
"k  c #797979",
"l  c gray48",
"z  c gray45",
"x  c #7C7C7C",
"c  c #7E7E7E",
"v  c #6F6F6F",
"b  c DimGray",
"n  c #5F5F5F",
"m  c gray37",
"M  c #515151",
"N  c gray33",
"B  c #585858",
"V  c #686868",
"C  c #6D6D6D",
"Z  c gray44",
"A  c #747474",
"S  c #717171",
"D  c gray46",
"F  c #727272",
"G  c #434343",
"H  c gray10",
"J  c gray14",
"K  c #353535",
"L  c gray12",
"P  c #151515",
"I  c gray5",
"U  c #060606",
"Y  c #010101",
"T  c black",
"R  c #040404",
"E  c gray3",
"W  c #070707",
"Q  c gray4",
"!  c #0E0E0E",
"~  c #101010",
"^  c gray8",
"/  c gray7",
"(  c #131313",
")  c gray1",
"_  c gray9",
"`  c #868686",
"'  c gray28",
"]  c #232323",
"[  c gray6",
"{  c #020202",
"}  c gray2",
"|  c #565656",
" . c gray59",
".. c gray35",
"X. c gray15",
"o. c #4B4B4B",
"O. c #505050",
"+. c #5D5D5D",
"@. c gray34",
"#. c #222222",
"$. c #2C2C2C",
"%. c #323232",
"&. c #313131",
"*. c gray20",
"=. c gray16",
"-. c #202020",
";. c gray11",
":. c #111111",
">. c #767676",
",. c gray49",
"<. c gray32",
"1. c gray30",
"2. c #5B5B5B",
"3. c #555555",
"4. c #4C4C4C",
"5. c #464646",
"6. c #3F3F3F",
"7. c gray23",
"8. c #343434",
"9. c gray21",
"0. c gray18",
"q. c gray19",
"w. c #484848",
"e. c gray31",
"r. c gray22",
"t. c gray13",
"y. c #161616",
"u. c #3E3E3E",
"i. c #1B1B1B",
"p. c #3A3A3A",
"a. c #0C0C0C",
"s. c gray24",
"d. c #252525",
"f. c #4E4E4E",
"g. c #898989",
"h. c #2A2A2A",
"j. c #3C3C3C",
"k. c #373737",
"l. c #777777",
"z. c gray47",
"x. c #5A5A5A",
"c. c #626262",
"v. c gray36",
"b. c #0B0B0B",
"n. c #272727",
"m. c #444444",
"M. c #181818",
"N. c #676767",
"B. c gray39",
"V. c #1E1E1E",
"C. c #535353",
"Z. c #414141",
"A. c #2D2D2D",
"S. c gray29",
"D. c gray27",
"F. c gray26",
"G. c gray25",
"H. c #090909",
"J. c gray17",
"K. c #191919",
"L. c #282828",
"P. c #494949",
/* pixels */
"  . . X o o o X O O O + @ @ @ # $ % % & @ @ @ # * * * = - - - - - - - - - - - - - - = & X X X & ; : : > % % % > > > > , < < < 1 ",
". # # 2 = = = 2 @ @ @ & o o o * : 3 : - o o o * 4 4 4 $ % % % % % % % % % % % % % % % 2 2 2 2 - 5 6 6 7 7 7 7 7 5 5 5 8 9 9 9 0 ",
". # # 2 = = = 2 + @ @ & & & & o : 3 : - o & & * = = = $ % % % % $ $ $ $ $ $ $ $ $ $ % 2 * * * 2 5 6 6 7 7 7 7 7 7 7 7 8 9 9 9 0 ",
"+ & & 3 q q q q 5 5 5 6 6 5 5 q w w w e 6 5 5 6 q q r r r r r r t t t y u u u u u u i p p p p p a a a a a a a y s s s d f f f g ",
"@ o & 6 h h h h h h h h h h h j k k l i h h h h h h h h h h h j z z z x w w w w w w w l k k k l w w w w w w w c t t t < f f f g ",
"@ o & 6 h h h h h h h h h h h j k k l i h h h j p l z v b 9 n m M N B < V 8 , C g Z A 1 S D z D k k F 8 G H J c t t t < f f f g ",
"@ o & 6 h h h h h h h h h h h j k k l y C M K L P I U Y T T T T T T T T T Y R E W Q ! I ~ ^ / ( ^ ^ I ) T T _ c t t t < f f f g ",
"# * o q j j j j j j j j j j j ` l C ' ] [ { T T T T T T T T T T T T T T T T T T T T T T T T T T T T T T T } | c l l l < f f f g ",
" .: ; s t t t t t t t t t t k ..X.Y T T T T T T T T T T T T T T T T T T T T T T T T T T T T T T T T T T } o.D z C C C 9 m m m b ",
"% 3 : w k k k k k k k k k f ] { T T T T T T T T T T T T T T T T T T T T T T T T T T T T T T T T T T T U O.z z F 0 0 0 n +.+.+.V ",
"% 3 : w k k k k k k k k @.E T T T T T ! #.$.%.&.*.K *.$.=.-.;.:.Q T T T T T T T T T T T T T T T T T U O.z z z S 0 0 0 n +.+.+.V ",
"2 4 4 x A D D >.w w ,.<.R T T ) L 1.v w w w w c l t t t t t t t t ,.z g < 2.3.4.5.6.7.8.9.%.0.q.9.w.v i ` ` ` p 1 C 1 f n n n , ",
"* 4 = t z z z D w w e.) T T ( n ,.w w w w w w c k k k k k k k k k k k k k k k k k k k w w w c 2.r., w ` h h h a 1 1 1 f n n n , ",
"* 4 = x z z z >.w F ! T T t.y j s w w w w w w c k k k k k k k k k k k k k k k k k k k w ,.| y.T T $.w ` h h h a 1 1 1 f n n n , ",
"* 4 = x z z z >.w u.T T L w h j s w w w w w w c k k k k k k k k k k k k k k k k k k k k i.Y T T T p.w ` h h h a 1 1 1 f n n n , ",
"* 4 = x A A A >.,.a.T ) v j j ` w w w w w w w c l l l l l l l l l l l l l l l l l l l s.T T T T T m w ` h h h a v v v f n n n , ",
"- % $ s k k k k 9 T T d.l l l l k k k k k k k x h h h h h h h h h h h h h h h h h h t { T T T T { t w ` h h h u D A A 9 +.+.+.b ",
"= % $ s k k k k o.T T f.k k k k k k k k k k k x h h h h h h h h h h h h h h h h h h M T T T T T H w w ` h h h u A A A 9 +.+.+.V ",
"= % $ s k k k k s.T T C k k k k k k k k k k k x h h h h h h h h h g.g.g.g.g.g.h h h h.T T T T T j.w w u h g.g.u D A A 9 +.+.+.V ",
"4 > % s k k k k k.T T s k k k k c c c l.D D D z.p p p p p p p p ,.,.,.,.,.,.,.,.k v [ T T T T T x.t t x ,.,.,.l C C C c.9 9 9 0 ",
"4 > % w k k k k u.T T z k k k l w w w >.z z z >.w w w w w w w w k k k k k k k z.z v.) T T T T b.0 k k k k k k >., , , c.f f f g ",
"4 > % w k k k k 4.T T 3.k k k l w w w >.z z z >.w w w w w w w w k k k k k k k z.z G T T T T T -.z.k k k k k k l.0 , , c.f f f g ",
"4 > % w k k k k V Y T t.k k k l w w w >.z z z >.w w w w w w w w k k k k k k k z.z n.T T T T T G k k k k k k k l.0 , , c.f f f g ",
"4 > > s k l l l k ~ T ) < k k l w w w >.z z z D w w w w w ,.d f k k k k k k k z.z ( T T T T T m k k k k k k k >.0 , , c.f f f g ",
"; 5 5 k z z z A z.m.T T M., D D S S S v v v v v Z S S S 2.#.} { @.D D D D D D A , Y T T T T } N.1 1 1 z D D D A S S S B.f f f g ",
": 6 5 z.F F F z z.z t.T T ( 3.F v 1 1 1 1 1 1 1 1 B.m.V.Y T T ) B A A A A A A z M T T T T T #.8 g g g S A A A A F F F < f f f g ",
": 6 5 k F F F z z.z.c.~ T T } k...N.C 1 v , B.<.p._ Y T T T [ s.z A A A A A A A s.T T T T T 6.8 g g g S A A A A F F F < f f f g ",
"S C C 8 < < < < 8 N.N.2.H T T T ) I ( ^ P :.Q Y T T T T ~ j.x.c.< < < < < < < 8 t.T T T T R n < < d d 8 8 8 8 8 d d d 9 n n n , ",
"f +.+.+.+.+.+.+.+.+.+.+.v.7.P R T T T T T T T T R :.0.' v.+.+.+.2.2.2.+.+.+.+.C.! T T T T V.c.c.9 9 9 9 9 9 9 9 n n n +.+.+.+.V ",
"f +.+.+.+.+.+.+.+.+.+.+.+.+.v.1.q.M.~ :.~ ( J u.e.x.+.+.+.+.+.+.2.2.2.+.+.+.+.Z.R T T T T k.c.c.9 9 9 9 9 9 9 9 n n n +.+.+.+.V ",
"f +.+.+.+.+.+.+.+.+.+.+.+.+.+.+.+.m x.2.x.+.+.+.+.+.+.+.+.+.+.+.2.2.2.+.+.+.+.A.T T T T Y 1.c.c.9 9 9 9 9 9 9 9 n n n +.+.+.+.V ",
"B.n n n n n n n n n n n n n n n n n n n n n n n n n n m +.+.+.+.n m m n 9 9 n _ T T T T ! m < < c.c.c.c.c.c.c.c.f f c.9 n n n , ",
"= % % 4 = = = = = = = = = = = = o o & & & & & o 4  .4 8 n n n c.. . . # X X q ! T T T T d.c z.S v.S.Z * & & & 2 : 3 3 * & & & O ",
"= % % 4 4 4 4 4 4 4 4 4 4 4 4 = & o o o o o o *  . .4 9 D.F.G S.z v , f 9 x.G.{ T T T T U I W Y T T *.* o o o 2 3 3 : * o o & O ",
"- $ $ 4 = = = = 4 4 4 = = = = = & & & & & & & * 4  . .q.T T T T T T T T T T T T T T T T T T T T T { c.o & & & 2 : : : o & & & O ",
"i w w s s s s p u u u x t t t x u u u u u u u a k z.>.Z.;.H.T T T T T T T T T T T T T T T T T T W O.w p p p p p w w c p p p p r ",
",.k k k k k k l w w w A z z z A w w w w w w w x Z v v 9 B O.w.6.e.F.p.J.#.;.T T T T T T T T H.J.B z.k k k k k k k k k k k k k i ",
",.k k k k k k l w w w A z z z A w w w w w w w x Z v v 9 +.+.+.n % % % r h z T T T T { g D ,.w w k k k k k k k k k k k k k k k i ",
",.k k k k k k l w w w A z z z A w w w w w w w x Z v v 9 +.+.+.n % % % r h 3.T T T T L w w w w w k k k k k k k k k k k k k k k i ",
"c l l l l l l t w w w A z z z A c w w s s s s ,.Z Z v 9 m m m 9 % % $ r h 7.T T T T F.w w w w w l l l l l l l l k k k k k k k i ",
"r ` ` ` ` ` ` i l l l A z z z A l l l i j j j i >.D D f 9 9 9 c.4 4 4 ` k K.T T T E g w w w w w c w w u j ` ` i k k k k k k k i ",
"q h h h h h h u k k k A z z z A k k l i h h h u l.0 L.K.N 9 9 c.4 4 = u @.} T T T L.c w w w w w w w w ` h h h ` l k k k k k k i ",
"q h h h h h h u k k k A z z z z k k k i g.h h u V ^ T T G.9 9 c.4 4 = u K T T T T @.w w w w w w w w w ` h h h ` l k k k k k k i ",
"j a a a a a a y ,.,.,.s s s s s y a y y a a a 1.Q T R X.v.9 9 c.2 2 2 y ( T T T ( >.l.l.l.l.l.z.w w w y a a a y ,.,.,.l k k k i ",
"i w w w w w w w w w w h h h h h h h h p w ,.5.) T ) 5.n n n n f & o o d { T T { P.z z z z z z A c w w w w w w w w w w l k k k i ",
"i w w w w w w w w w w h h h h h h h h p w 1.{ T ) D.1 f n n n f & o o K T T T L.C z z z z z z A c w w w w w w w w w w l k k k i ",
"i w w w w w w w w w w h h h h h h h h p 4.) T b.G 1 1 f n n n f & o 6 U T T H.g z z z z z z z A c w w w w w w w w w w l k k k i ",
"a w w w w w w w w w w h h h h h h h h ..) T ) x.v 1 1 f n n n f & o P.T T T F.a z A A A A A A A c w w w w w w w w w w l k k k i ",
"w l l l l l l l l l t j h h h h h h l ! T T s.z.0 , , n m m m 9  .s b.T T P l x x ,.,.,.,.,.,.x l l l l l l l l l l l k k k k i ",
",.k k k k k k k k k k j h h h h h h u.T T H.V >., b b n +.+.+.n r d.T T ! 2.k l w w w w w w w w k k k k k k k k k k k k k k k i ",
",.k k k k k k k k k k ` h h h h h l.W T T M.z.>., b b n +.+.+.f j.Y T W x.z.k l w w w w w w w w k k k k k k k k k k k k k k k i ",
"p ,.,.,.,.,.,.,.k k k ,.,.,.,.,.,.8.T T T / Z z b b b f 9 9 9 9.Y T T 3.i i i i ` ` ` s w w w s i i i x k k k t a i i l.D D D w ",
"a w w w w w w c k k k k k k k k k y.T T T ) w.F b b b c.f C.n.) T ) 5.e h h h h h h h s w w w s h h g.,.k k k x h h h >.z z z c ",
"i w w w w w w c k k k k k k k k k E T T T T } A.D.<.f.Z.X.E T T Q v.: e h h h h h h h s w w w s h h g.,.k k k x h h h >.z z z c ",
"i w w w w w w c k k k k k k k k k / T T T T T T T T T T T T T ( l > % e h h h h h h h s w w w s h h g.,.k k k x h h h >.z z z c ",
"a w w w w w w c k k k k k k k k k J.T T T T T T T T T T T { V.3.> > > e h h h h h h h s w w w s j h h ,.k k k x j h j >.z z z ,.",
"Z C C C C C C C g g g v v v v v C m Q T T T T T T T T T I m.9 B.r q q >.Z Z Z F l l l A D D D A S S S Z v v v v C C C 0 0 0 0 D ",
"C b b b b b b b b b b C 1 1 1 1 , , | y.T T T T T ) V.u.n c.c.< e e r z g g g v l.l.l.z F F F F v 1 1 1 1 1 1 C b b b b b b b z ",
"C b b b b b b b , , , 1 1 1 1 1 , 0 , B.9.;.( K.h.o.A d c.c.c.< e e r z g g g v l.l.l.z F F F F v 1 1 1 1 1 1 C , , , , , , , A ",
"N.B.B.B.B.B.B.B.B.B.B.< < < < < B.B.B.d 8 8 c.8 8 8 8 9 n n n 9 g g g d B.B.B.< b b b 8 8 8 8 8 d < < B.B.B.B.c.f f f f f f f g ",
"< 9 9 9 9 9 9 9 n n n n n n n n n n n n n n n n +.+.+.+.+.+.+.+.+.+.+.m m m m n c.c.c.9 9 9 9 9 n n n m +.+.+.+.+.+.+.+.+.+.+.V ",
"< 9 9 9 9 9 9 9 n n n n n n n n n n n n n n n n +.+.+.+.+.+.+.+.+.+.+.m m m m n c.c.c.9 9 9 9 9 n n n m +.+.+.+.+.+.+.+.+.+.+.V ",
"< 9 9 9 9 9 9 9 n n n n n n n n n n n n n n n n +.+.+.+.+.+.+.+.+.+.+.m m m m n c.c.c.9 9 9 9 9 n n n m +.+.+.+.+.+.+.+.+.+.+.V ",
"1 g g g g g g 0 , 0 0 0 0 0 0 0 0 0 0 0 0 0 0 0 b V V V V V V V V V V b , , , , C 1 1 g g g g g , 0 0 b V V V V V V V V V V V S "
};
